<svg xmlns="http://www.w3.org/2000/svg" xmlns:xlink="http://www.w3.org/1999/xlink" width="500" zoomAndPan="magnify" viewBox="0 0 375 374.999991" height="500" preserveAspectRatio="xMidYMid meet" version="1.0"><path stroke-linecap="butt" transform="matrix(2.222343, 0, 0, 2.222343, 37.500002, -10.567903)" fill="none" stroke-linejoin="miter" d="M 44.067714 99.186867 L 28.111162 99.186867 L 28.111162 160.000348 L 7.607397 160.000348 L 7.607397 20.330424 L 28.111162 20.330424 L 28.111162 78.127664 L 44.067714 78.127664 L 44.067714 20.330424 L 64.617179 20.330424 L 64.617179 160.000348 L 44.067714 160.000348 Z M 103.949605 141.166414 C 107.939622 141.769311 110.954106 140.795536 113.226834 137.781052 C 114.386927 136.436399 114.944123 134.161913 114.944123 130.915411 L 114.944123 20.330424 L 135.491831 20.330424 L 135.491831 134.161913 C 135.491831 141.769311 133.589981 148.773812 128.812507 153.923922 C 124.080734 159.072274 116.102458 162.086758 103.949605 161.345002 Z M 103.949605 141.166414 " stroke="#ffbd59" stroke-width="4.275" stroke-opacity="1" stroke-miterlimit="4"/></svg>