<svg xmlns="http://www.w3.org/2000/svg" xmlns:xlink="http://www.w3.org/1999/xlink" width="500" zoomAndPan="magnify" viewBox="0 0 375 374.999991" height="500" preserveAspectRatio="xMidYMid meet" version="1.0"><defs><g/></defs><g fill="#000000" fill-opacity="1"><g transform="translate(157.101557, 304.070135)"><g><path d="M 2.203125 0 C 1.984375 0 1.78125 -0.0351562 1.59375 -0.109375 C 1.40625 -0.179688 1.25 -0.28125 1.125 -0.40625 C 1 -0.53125 0.898438 -0.675781 0.828125 -0.84375 C 0.753906 -1.019531 0.71875 -1.210938 0.71875 -1.421875 L 0.71875 -6.984375 C 0.71875 -7.179688 0.753906 -7.363281 0.828125 -7.53125 C 0.898438 -7.707031 1 -7.859375 1.125 -7.984375 C 1.25 -8.117188 1.40625 -8.222656 1.59375 -8.296875 C 1.78125 -8.367188 1.984375 -8.40625 2.203125 -8.40625 C 2.410156 -8.40625 2.609375 -8.367188 2.796875 -8.296875 C 2.984375 -8.222656 3.140625 -8.117188 3.265625 -7.984375 C 3.390625 -7.859375 3.488281 -7.707031 3.5625 -7.53125 C 3.632812 -7.363281 3.671875 -7.179688 3.671875 -6.984375 L 3.671875 -5.78125 L 5.140625 -5.78125 L 5.140625 -6.984375 C 5.140625 -7.179688 5.175781 -7.363281 5.25 -7.53125 C 5.320312 -7.707031 5.421875 -7.859375 5.546875 -7.984375 C 5.679688 -8.117188 5.835938 -8.222656 6.015625 -8.296875 C 6.203125 -8.367188 6.40625 -8.40625 6.625 -8.40625 C 6.84375 -8.40625 7.039062 -8.367188 7.21875 -8.296875 C 7.394531 -8.222656 7.550781 -8.117188 7.6875 -7.984375 C 7.820312 -7.859375 7.921875 -7.707031 7.984375 -7.53125 C 8.054688 -7.363281 8.09375 -7.179688 8.09375 -6.984375 L 8.09375 -1.421875 C 8.09375 -1.210938 8.054688 -1.019531 7.984375 -0.84375 C 7.921875 -0.675781 7.820312 -0.53125 7.6875 -0.40625 C 7.550781 -0.28125 7.394531 -0.179688 7.21875 -0.109375 C 7.039062 -0.0351562 6.84375 0 6.625 0 C 6.40625 0 6.203125 -0.0351562 6.015625 -0.109375 C 5.835938 -0.179688 5.679688 -0.28125 5.546875 -0.40625 C 5.421875 -0.53125 5.320312 -0.675781 5.25 -0.84375 C 5.175781 -1.019531 5.140625 -1.210938 5.140625 -1.421875 L 5.140625 -2.953125 L 3.671875 -2.953125 L 3.671875 -1.421875 C 3.671875 -1.210938 3.632812 -1.019531 3.5625 -0.84375 C 3.488281 -0.675781 3.390625 -0.53125 3.265625 -0.40625 C 3.140625 -0.28125 2.984375 -0.179688 2.796875 -0.109375 C 2.609375 -0.0351562 2.410156 0 2.203125 0 Z M 2.203125 -0.234375 C 2.566406 -0.234375 2.863281 -0.34375 3.09375 -0.5625 C 3.320312 -0.789062 3.4375 -1.078125 3.4375 -1.421875 L 3.4375 -3.1875 L 5.375 -3.1875 L 5.375 -1.421875 C 5.375 -1.078125 5.488281 -0.789062 5.71875 -0.5625 C 5.945312 -0.34375 6.25 -0.234375 6.625 -0.234375 C 6.988281 -0.234375 7.285156 -0.34375 7.515625 -0.5625 C 7.753906 -0.789062 7.875 -1.078125 7.875 -1.421875 L 7.875 -6.984375 C 7.875 -7.328125 7.753906 -7.609375 7.515625 -7.828125 C 7.285156 -8.054688 6.988281 -8.171875 6.625 -8.171875 C 6.25 -8.171875 5.945312 -8.054688 5.71875 -7.828125 C 5.488281 -7.609375 5.375 -7.328125 5.375 -6.984375 L 5.375 -5.5625 L 3.4375 -5.5625 L 3.4375 -6.984375 C 3.4375 -7.328125 3.320312 -7.609375 3.09375 -7.828125 C 2.863281 -8.054688 2.566406 -8.171875 2.203125 -8.171875 C 1.816406 -8.171875 1.507812 -8.054688 1.28125 -7.828125 C 1.0625 -7.609375 0.953125 -7.328125 0.953125 -6.984375 L 0.953125 -1.421875 C 0.953125 -1.078125 1.0625 -0.789062 1.28125 -0.5625 C 1.507812 -0.34375 1.816406 -0.234375 2.203125 -0.234375 Z M 2.203125 -0.234375 "/></g></g></g><g fill="#ffbd59" fill-opacity="1"><g transform="translate(-7.900818, 278.773011)"><g><path d="M 162.765625 0 L 162.765625 -94.8125 L 52.125 -94.8125 L 52.125 0 L 24.390625 0 L 24.390625 -204.578125 L 52.125 -204.578125 L 52.125 -118.046875 L 162.765625 -118.046875 L 162.765625 -204.578125 L 190.5 -204.578125 L 190.5 0 Z M 162.765625 0 "/></g></g></g><g fill="#ffbd59" fill-opacity="1"><g transform="translate(227.656562, 278.773011)"><g><path d="M 66.359375 2.90625 C 31.703125 2.90625 11.128906 -15 4.640625 -50.8125 L 31.796875 -55.3125 C 33.535156 -44.09375 37.453125 -35.332031 43.546875 -29.03125 C 49.648438 -22.738281 57.300781 -19.59375 66.5 -19.59375 C 76.5625 -19.59375 84.492188 -23.050781 90.296875 -29.96875 C 96.109375 -36.894531 99.015625 -47.039062 99.015625 -60.40625 L 99.015625 -181.921875 L 59.671875 -181.921875 L 59.671875 -204.578125 L 126.609375 -204.578125 L 126.609375 -60.984375 C 126.609375 -41.140625 121.234375 -25.53125 110.484375 -14.15625 C 99.742188 -2.78125 85.035156 2.90625 66.359375 2.90625 Z M 66.359375 2.90625 "/></g></g></g></svg>